<svg xmlns="http://www.w3.org/2000/svg" width="50" height="30" viewBox="0 0 50 30" fill="none">
<g clip-path="url(#clip0_11662_3945)">
<path fill-rule="evenodd" clip-rule="evenodd" d="M18.2674 0.786845C18.4191 0.792274 18.5602 0.798988 18.6893 0.80613C22.095 0.995273 24.8605 3.67842 24.8605 3.67842C28.9207 6.19156 31.4884 4.16313 33.1697 3.57156C34.616 3.06256 41.7213 -1.16601 44.5512 7.01242C49.0861 16.426 48.9614 26.2487 44.4359 26.2487C38.7692 26.2487 38.7083 18.3301 28.2431 18.3737C17.2194 18.4197 17.4186 26.2471 11.6915 26.2471C8.82361 26.2471 7.0293 24.1558 7.90807 19.4987C8.07556 18.6071 7.93278 17.6851 7.50339 16.8856C7.44243 16.7658 7.44429 16.7494 7.42511 17.0221C7.35356 18.0308 7.13891 18.9384 6.66511 19.681C5.01876 22.2578 5.88895 29.9987 11.6739 29.9987C17.3181 29.9987 17.3225 21.3701 28.0219 21.3701C38.8526 21.3701 38.695 29.9987 44.4353 29.9987C50.0627 29.9987 53.853 21.7407 45.5311 4.82256C41.1666 -2.20187 34.9758 0.758559 33.3248 1.85113C32.3433 2.5007 27.6259 5.25013 24.6862 3.01742C24.6862 3.01742 21.8203 0.833132 18.2799 0.761418C15.6354 0.707846 15.75 0.696703 18.2674 0.786845Z" fill="#006496"/>
<path fill-rule="evenodd" clip-rule="evenodd" d="M15.5502 0.0787068C15.9474 0.239993 16.107 0.51585 16.1941 1.22156C16.2813 1.92728 16.2605 2.43585 15.8687 3.36856C15.5746 4.08542 15.2703 4.80313 14.9612 5.52685C14.453 6.71642 15.1133 9.09828 16.4304 10.8491C16.8514 11.408 17.2722 11.9677 17.6928 12.5283C19.0086 14.2804 20.1813 15.8823 20.2152 16.13C20.2377 16.28 20.224 16.4332 20.1751 16.5768C20.0455 16.8888 19.9154 17.2011 19.7491 17.5583C19.5521 18.0037 19.1524 18.1794 18.7069 17.9804C18.5902 17.9078 18.4817 17.8227 18.3834 17.7266C17.5356 17.0061 16.6865 16.2861 15.8362 15.5666C14.4266 14.3773 12.9557 13.2859 12.5614 13.1173C12.1672 12.9487 11.7928 13.4546 11.3867 14.1949C11.0527 14.8037 10.6712 15.4027 10.6096 15.511C9.29891 17.813 9.89406 18.1917 10.7403 20.2461C10.764 20.3033 10.4019 21.1044 10.1688 21.1604C9.49095 21.3216 7.6258 19.889 7.19236 19.6846C6.92891 19.5604 4.80476 19.2027 4.08497 18.8014C3.69016 18.5813 4.19945 17.45 4.30506 17.4034C6.31144 16.5248 7.10893 16.4984 7.99886 14.099C8.51488 12.7073 8.6544 11.4571 8.26016 11.2873C7.86592 11.1174 6.06546 10.812 4.23122 10.6191C2.39698 10.4263 0.81445 10.2763 0.696679 10.2658C0.578909 10.2554 0.175228 10.1324 0.0500163 9.80871C-0.0198881 9.6087 -0.0156742 9.39031 0.0618935 9.19314C0.193115 8.88214 0.32219 8.57128 0.490045 8.21356C0.559255 8.07867 0.657298 7.96061 0.777244 7.86771C0.973718 7.71314 2.93803 7.44828 5.1087 7.18099L7.2277 6.91999C9.39808 6.65271 11.5574 5.46642 12.0656 4.27713C12.3688 3.56613 12.6769 2.84956 12.9833 2.12271C13.3721 1.19014 13.7094 0.852707 14.2848 0.403564C14.8666 -0.00515008 15.1508 -0.0837223 15.5493 0.0795635" fill="#006496"/>
</g>
<defs>
<clipPath id="clip0_11662_3945">
<rect width="142.768" height="30" fill="white"/>
</clipPath>
</defs>
</svg>
